{"title":"Black Hawk Down 2001 BRRip 720p x264 AAC - PRiSTiNE [P2PDL]","uid":8238388,"size":850027450,"categoryP":"video","categoryS":"hd___movies","magnet":"?xt=urn:btih:bec5f2b3a3327ada3a9d741bfd1af0d14fc49893&amp;dn=Black+Hawk+Down+2001+BRRip+720p+x264+AAC+-+PRiSTiNE+%5BP2PDL%5D&amp;tr=udp%3A%2F%2Ftracker.openbittorrent.com%3A80&amp;tr=udp%3A%2F%2Fopen.demonii.com%3A1337&amp;tr=udp%3A%2F%2Ftracker.coppersurfer.tk%3A6969&amp;tr=udp%3A%2F%2Fexodus.desync.com%3A6969","seeders":1,"leechers":1,"uploader":"ValidusVyto","files":-1,"time":1362902048,"description":"_________________________  Visit us at _________________________\n  &lt;a href=&quot;\nhttp://p2pdl.com&quot; rel=&quot;nofollow&quot; target=&quot;_NEW&quot;&gt;\nhttp://p2pdl.com&lt;/a&gt;  ____________________________ &lt;a href=&quot; http://p2pdl.com&quot; rel=&quot;nofollow&quot; target=&quot;_NEW&quot;&gt; http://p2pdl.com&lt;/a&gt;\n\n\nBlack Hawk Down 2001 BRRip 720p x264 AAC - PRiSTiNE\n\n\nGenre: Drama | History | War\nPlot: 123 elite U.S. soldiers drop into Somalia to capture two top lieutenants of a renegade warlord\nand find themselves in a desperate battle with a large force of heavily-armed Somalis.\nDirector: Ridley Scott\nStars: Josh Hartnett, Ewan McGregor, Tom Sizemore.\nRated: R for intense, realistic, graphic war violence, and for language.\n\n\nIMDb: &lt;a href=&quot;\nhttp://www.imdb.com/title/tt0265086/&quot; rel=&quot;nofollow&quot; target=&quot;_NEW&quot;&gt;\nhttp://www.imdb.com/title/tt0265086/&lt;/a&gt;\n\nTrailer:\n\n\nFormat                         : MPEG-4\nFile size                      : 802 MiB\nDuration                       : 2h 24mn\nOverall bit rate               : 777 Kbps\nVideo Format                   : AVC\nVideo Bit rate                 : 700 Kbps\nWidth                          : 1 280 pixels\nHeight                         : 536 pixels\nDisplay aspect ratio           : 2.40:1\nFrame rate mode                : Constant\nFrame rate                     : 23.976 fps\nStream size                    : 719 MiB (90%)\nWriting library                : x264 core 129 r2245\nAudio Format                   : AAC\nDuration                       : 2h 24mn\nAudio Bit rate                 : 77.4 Kbps\nChannel(s)                     : 2 channels\nChannel positions              : Front: L R\nSampling rate                  : 48.0 KHz\nStream size                    : 79.9 MiB (10%)\nLanguage                       : English\nSubtitle                       : Yes(English)\nSource                         : 720p.BluRay.DTS.x264-FoRM(Thanks)\n\nScreenshots:\n &lt;a href=&quot;\nhttp://cdn.piczend.com/images/2tNz2yON/1362896444_tinybayblackhawkdown200.jpg&quot; rel=&quot;nofollow&quot; target=&quot;_NEW&quot;&gt;\nhttp://cdn.piczend.com/images/2tNz2yON/1362896444_tinybayblackhawkdown200.jpg&lt;/a&gt;\n\n\n----------------------------------------------------------------------------------------------------\n\n\nEncoded using revolutionary 10bit encoding, which enables us to provide you more crispier and\nsharper images at small sizes, just make sure you follow our instructions without a fault.\nRecommend to you to use latest version of VLC player. Install K-Lite Codec Pack or shark007 codecs\nin case of any kind of problem in playback (For non-VLC Media Player users). Alternatively, install\nCore AVC codecs, the fastest decoder that there is coupled with Community Center Codec Pack and play\non Windows Media Player Classic.\n\n\nEncoder Notes: Looking For Early Access To Anything You Can Provide DVDScr, R5, DVDR, BluRay, Direct\nAudio, Early Music Releases, Seedboxes, Dedicated Servers anything u can provide, Advance / Promo CDs/\nDVDs. If You Got anything to offer contact me at &quot;&lt;a class=&quot;__cf_email__&quot; href=&quot;/cdn-cgi/l/email-protection&quot; data-cfemail=&quot;f4848693b49c81879cda979b99&quot;&gt;[email&amp;#160;protected]&lt;/a&gt;&lt;script cf-hash='f9e31' type=&quot;text/javascript&quot;&gt;\n/* &lt;![CDATA[ */!function(){try{var t=&quot;currentScript&quot;in document?document.currentScript:function(){for(var t=document.getElementsByTagName(&quot;script&quot;),e=t.length;e--;)if(t[e].getAttribute(&quot;cf-hash&quot;))return t[e]}();if(t&amp;&amp;t.previousSibling){var e,r,n,i,c=t.previousSibling,a=c.getAttribute(&quot;data-cfemail&quot;);if(a){for(e=&quot;&quot;,r=parseInt(a.substr(0,2),16),n=2;a.length-n;n+=2)i=parseInt(a.substr(n,2),16)^r,e+=String.fromCharCode(i);e=document.createTextNode(e),c.parentNode.replaceChild(e,c)}}}catch(u){}}();/* ]]&gt; */&lt;/script&gt;&quot;.","torrent":{"xt":"urn:btih:bec5f2b3a3327ada3a9d741bfd1af0d14fc49893","amp;dn":"Black+Hawk+Down+2001+BRRip+720p+x264+AAC+-+PRiSTiNE+%5BP2PDL%5D","amp;tr":["udp%3A%2F%2Ftracker.openbittorrent.com%3A80","udp%3A%2F%2Fopen.demonii.com%3A1337","udp%3A%2F%2Ftracker.coppersurfer.tk%3A6969","udp%3A%2F%2Fexodus.desync.com%3A6969"],"infoHash":"bec5f2b3a3327ada3a9d741bfd1af0d14fc49893","infoHashBuffer":{"type":"Buffer","data":[190,197,242,179,163,50,122,218,58,157,116,27,253,26,240,209,79,196,152,147]},"announce":[],"urlList":[]}}